<?xml version="1.0" standalone="no"?>
<!DOCTYPE svg PUBLIC "-//W3C//DTD SVG 20010904//EN"
 "http://www.w3.org/TR/2001/REC-SVG-20010904/DTD/svg10.dtd">
<svg version="1.0" xmlns="http://www.w3.org/2000/svg"
 width="126.000000pt" height="126.000000pt" viewBox="0 0 126.000000 126.000000"
 preserveAspectRatio="xMidYMid meet">
<metadata>
Created by potrace 1.14, written by Peter Selinger 2001-2017
</metadata>
<g transform="translate(0.000000,126.000000) scale(0.100000,-0.100000)"
fill="#000000" stroke="none">
<path d="M441 1249 c-84 -26 -160 -102 -182 -182 -6 -22 -11 -96 -11 -163 0
-93 -4 -126 -14 -135 -8 -6 -12 -15 -9 -19 3 -5 -4 -11 -15 -15 -13 -4 -20
-15 -20 -31 0 -13 -5 -24 -10 -24 -6 0 -17 -14 -24 -32 -15 -35 -6 -86 19
-104 8 -6 15 -17 15 -23 0 -7 16 -32 35 -55 19 -24 32 -46 28 -49 -3 -4 1 -7
10 -7 9 0 19 5 22 10 10 17 35 11 32 -8 -6 -36 -32 -51 -53 -29 -4 4 -19 7
-34 7 -30 0 -54 -22 -65 -60 -4 -13 -14 -30 -21 -38 -9 -8 -14 -36 -14 -76 0
-58 3 -67 34 -101 20 -22 33 -45 31 -56 -2 -10 0 -21 4 -24 5 -2 7 8 6 25 l-2
29 36 -25 c57 -38 87 -49 163 -61 28 -4 43 -1 64 16 l27 21 32 -20 c46 -29
175 -29 215 0 l28 20 26 -21 c22 -17 35 -20 71 -14 25 3 46 5 47 4 2 -1 20 6
42 15 21 9 42 13 47 10 5 -3 8 -2 7 3 -2 4 -1 8 2 8 3 0 16 10 30 23 25 23 46
30 34 10 -5 -7 -3 -8 5 -4 7 5 10 10 7 13 -3 3 6 19 19 35 14 16 25 37 26 46
4 68 -2 116 -15 131 -9 10 -16 24 -16 33 0 38 -87 78 -105 48 -13 -21 -44 -3
-50 28 -3 17 1 22 16 22 10 0 19 -4 19 -10 0 -5 7 -10 15 -10 8 0 15 6 15 13
0 7 14 27 30 45 17 18 30 38 30 44 0 5 11 23 25 40 30 36 28 93 -5 120 -11 9
-20 25 -20 37 0 11 -6 24 -12 28 -37 23 -42 44 -43 181 -2 117 -5 144 -24 182
-27 58 -59 92 -119 127 -46 27 -51 28 -222 30 -98 1 -190 -2 -209 -8z m369
-14 c40 -9 95 -42 127 -76 47 -51 61 -103 62 -232 1 -67 0 -119 -3 -117 -8 9
-48 134 -53 165 -2 17 -19 60 -36 97 -26 54 -38 68 -60 73 -16 4 -40 13 -55
21 -26 13 -108 29 -144 27 -10 0 -30 -1 -44 -2 -14 0 -23 -5 -19 -10 3 -6 -23
-8 -66 -6 -54 3 -69 1 -60 -8 19 -19 12 -27 -15 -17 -34 13 -105 13 -84 0 12
-8 9 -10 -12 -10 -26 0 -28 -3 -28 -42 0 -24 -4 -59 -9 -78 -4 -20 -4 -46 0
-58 5 -14 3 -31 -6 -49 -8 -15 -18 -43 -21 -60 -13 -67 -21 -29 -19 85 2 121
14 165 63 223 27 32 95 69 143 77 56 10 293 7 339 -3z"/>
</g>
</svg>
